<?xml version="1.0" encoding="UTF-8"?>
<svg id="Layer_2" data-name="Layer 2" xmlns="http://www.w3.org/2000/svg" viewBox="0 0 140.7 101.2">
  <defs>
    <style>
      .cls-1 {
        fill: #68bf6f;
      }

      .cls-1, .cls-2 {
        stroke-width: 0px;
      }

      .cls-2 {
        fill: #eb8743;
      }
    </style>
  </defs>
  <g id="Layer_1-2" data-name="Layer 1">
    <g>
      <path class="cls-2" d="m107.8,82.2c-8.6-14.8-17-29.4-25.5-44.2-8.5,14.8-16.9,29.3-25.5,44.2h10.8c1.5,0,3.5-.4,4.2.3.8.8.3,2.8.3,4.2v13.1c0,.9,0,1.4-1.2,1.4H23.8C43.4,67.4,62.7,33.9,82.3,0c19.5,33.8,38.9,67.4,58.4,101.1-.7,0-1.2.1-1.7.1h-44.6c-1.4,0-1.9-.3-1.9-1.8.1-5.2.1-10.4,0-15.5,0-1.4.4-1.8,1.8-1.7,4.4.1,8.8,0,13.5,0Z"/>
      <path class="cls-1" d="m0,101.2C19.6,67.4,39,33.8,58.5,0c2.4,4.2,4.7,8.2,6.9,12.2.2.4-.2,1.3-.5,1.8-10.3,18-20.7,35.9-31.1,53.8-6.2,10.7-12.3,21.3-18.5,32-.6,1-1.1,1.4-2.3,1.4H0Z"/>
    </g>
  </g>
</svg>